<svg xmlns="http://www.w3.org/2000/svg" viewBox="0 0 261.43 72.92"><defs><style>.cls-1,.cls-2,.cls-3,.cls-4,.cls-5,.cls-6,.cls-7{isolation:isolate;}.cls-2,.cls-3,.cls-4,.cls-5,.cls-6,.cls-7{font-size:65.2px;font-family:MADETOMMY-Bold, MADE TOMMY;font-weight:700;}.cls-2,.cls-4,.cls-6{fill:#f23d3d;}.cls-2,.cls-3{letter-spacing:-0.03em;}.cls-10,.cls-3,.cls-5,.cls-7{fill:none;stroke:#fff;stroke-miterlimit:10;}.cls-4,.cls-5{letter-spacing:-0.02em;}.cls-8{fill:#ea6a1f;}.cls-9{fill:#e29700;}</style></defs><g id="Calque_2" data-name="Calque 2"><g id="Calque_1-2" data-name="Calque 1"><g id="Calque_2-2" data-name="Calque 2"><g id="Calque_1-2-2" data-name="Calque 1-2"><g class="cls-1"><text class="cls-2" transform="translate(4.64 55.92)">A</text><text class="cls-3" transform="translate(4.64 55.92)">A</text><text class="cls-4" transform="translate(50.02 55.92)">f</text><text class="cls-5" transform="translate(50.02 55.92)">f</text><text class="cls-6" transform="translate(74.4 55.92)">fiches</text><text class="cls-7" transform="translate(74.4 55.92)">fiches</text></g><path class="cls-8" d="M31.93,36.82l-6-19-6,19Zm2.63,8.48H17.32l-2.67,8.48H2.91L19.34,8.14H32.56L48.94,53.78H37.27Z"/><path class="cls-8" d="M64.92,20.71h6.45v8.74H64.92V53.78H54.29V29.46h-4V20.71h4c0-6.13,2.09-14.21,12.52-14.21A25.82,25.82,0,0,1,71.37,7v8.54a14.82,14.82,0,0,0-2-.13C66,15.37,64.92,17.26,64.92,20.71Z"/><path class="cls-8" d="M89.3,20.71h6.46v8.74H89.3V53.78H78.68V29.46H74.63V20.71h4.05c0-6.13,2.08-14.21,12.51-14.21A25.1,25.1,0,0,1,95.76,7v8.54a14.82,14.82,0,0,0-2-.13C90.35,15.37,89.3,17.26,89.3,20.71Z"/><path class="cls-8" d="M101.3,20.71h10.56V53.78H101.3ZM101,11.45a5.54,5.54,0,1,1,5.52,5.62A5.54,5.54,0,0,1,101,11.45Z"/><path class="cls-8" d="M140.75,41.26l9.12,5.45a17.45,17.45,0,0,1-15.06,7.89c-10.3,0-17.73-7.56-17.73-17.34s7.48-17.32,17.73-17.32c6.59,0,12.06,3.06,15.06,7.89l-9.12,5.47a7.1,7.1,0,0,0-13,4,6.85,6.85,0,0,0,6.7,7h.3A7,7,0,0,0,140.75,41.26Z"/><path class="cls-8" d="M185.86,33.11V53.78H175.24V36c0-3.79-2.35-5.68-5.29-5.68s-5.28,2-5.28,5.68v17.8H154.11V8.14h10.56V23.78a11.46,11.46,0,0,1,9.07-3.84C182,19.94,185.86,26.46,185.86,33.11Z"/><path class="cls-8" d="M215.66,34.09c-.78-3.85-3.52-5.61-7.17-5.61a7.12,7.12,0,0,0-7.11,5.61Zm9.58,6.39H201.38c1.11,3.84,4.24,5.6,8.28,5.6a8.92,8.92,0,0,0,6.78-2.87l7.43,4.44c-2.67,4.1-7.76,7-14.21,7-11.15,0-18.58-7-18.58-17.34a17.07,17.07,0,0,1,16.77-17.37h.31c9.78,0,18.4,6.65,17.08,20.54Z"/><path class="cls-8" d="M257.26,43.54c0,7-5.16,11.08-14.8,11.08-6.65,0-13-2.15-14.41-7.95l9.58-3c.39,1.3,1.7,2.67,4.69,2.67,2.22,0,4-.65,4-2.34,0-2.29-3.46-2.14-7.37-3-6.33-1.41-9.78-3.72-9.78-10.18,0-6.91,5.94-10.88,14.22-10.88,5.67,0,11.28,2.8,12.71,8.41l-8.86,2.15c-.4-1.57-1.83-2.41-3.79-2.41s-4,.58-4,2.41c0,2.15,3.59,2.28,6.19,2.8C253.93,35.06,257.26,37.48,257.26,43.54Z"/><g class="cls-1"><g class="cls-1"><path class="cls-9" d="M32.22,43.15H14.94l-2.67,8.48H.53L17,6H30.13L46.56,51.63H34.89Zm-2.67-8.47-6-19-6,19Z"/></g><g class="cls-1"><path class="cls-9" d="M62.54,18.57H69v8.74H62.54V51.63H51.91V27.31h-4V18.57h4c0-6.13,2.09-14.21,12.52-14.21A26,26,0,0,1,69,4.81v8.55A13.67,13.67,0,0,0,67,13.23C63.58,13.23,62.54,15.12,62.54,18.57Z"/></g><g class="cls-1"><path class="cls-9" d="M86.92,18.57h6.45v8.74H86.92V51.63H76.29V27.31h-4V18.57h4c0-6.13,2.09-14.21,12.52-14.21a26,26,0,0,1,4.56.45v8.55a13.67,13.67,0,0,0-2-.13C88,13.23,86.92,15.12,86.92,18.57Z"/><path class="cls-9" d="M98.65,9.31a5.55,5.55,0,0,1,11.09,0,5.55,5.55,0,1,1-11.09,0Zm.26,9.26h10.57V51.63H98.91Z"/><path class="cls-9" d="M138.36,39.11l9.13,5.48a17.47,17.47,0,0,1-15.06,7.89c-10.31,0-17.74-7.57-17.74-17.35s7.43-17.34,17.74-17.34c6.58,0,12.06,3.06,15.06,7.89l-9.13,5.48a7.1,7.1,0,0,0-13,4,6.86,6.86,0,0,0,7.05,7A7,7,0,0,0,138.36,39.11Z"/><path class="cls-9" d="M183.48,31V51.63H172.85V33.83c0-3.78-2.35-5.67-5.28-5.67s-5.28,2-5.28,5.67v17.8H151.73V6h10.56V21.64a11.5,11.5,0,0,1,9.06-3.85C179.63,17.79,183.48,24.31,183.48,31Z"/><path class="cls-9" d="M222.86,38.33H199c1.11,3.85,4.24,5.61,8.28,5.61a9,9,0,0,0,6.79-2.87l7.43,4.43c-2.68,4.11-7.76,7-14.22,7-11.14,0-18.58-7-18.58-17.35a17.07,17.07,0,0,1,17.08-17.34C215.56,17.79,224.16,24.44,222.86,38.33Zm-9.59-6.39c-.78-3.85-3.52-5.61-7.17-5.61A7.14,7.14,0,0,0,199,31.94Z"/><path class="cls-9" d="M254.87,41.39c0,7-5.15,11.09-14.8,11.09-6.65,0-13-2.15-14.41-8l9.58-3c.4,1.31,1.7,2.68,4.7,2.68,2.22,0,4-.66,4-2.35,0-2.28-3.46-2.15-7.37-3-6.33-1.43-9.78-3.72-9.78-10.17,0-6.91,5.93-10.89,14.21-10.89,5.67,0,11.28,2.8,12.72,8.41l-8.87,2.15c-.39-1.56-1.83-2.41-3.78-2.41s-4,.59-4,2.41c0,2.15,3.58,2.28,6.19,2.81C251.55,32.92,254.87,35.33,254.87,41.39Z"/></g></g><g class="cls-1"><g class="cls-1"><path class="cls-9" d="M32.4,43.15H15.12l-2.67,8.48H.71L17.14,6H30.31L46.74,51.63H35.07Zm-2.67-8.47-6-19-6,19Z"/></g><g class="cls-1"><path class="cls-10" d="M32.4,43.15H15.12l-2.67,8.48H.71L17.14,6H30.31L46.74,51.63H35.07Zm-2.67-8.47-6-19-6,19Z"/></g><g class="cls-1"><path class="cls-9" d="M62.72,18.57h6.45v8.74H62.72V51.63H52.09V27.31h-4V18.57h4c0-6.13,2.09-14.21,12.52-14.21a26,26,0,0,1,4.56.45v8.55a13.67,13.67,0,0,0-2-.13C63.76,13.23,62.72,15.12,62.72,18.57Z"/></g><path class="cls-10" d="M62.72,18.57h6.45v8.74H62.72V51.63H52.09V27.31h-4V18.57h4c0-6.13,2.09-14.21,12.52-14.21a26,26,0,0,1,4.56.45v8.55a13.67,13.67,0,0,0-2-.13C63.76,13.23,62.72,15.12,62.72,18.57Z"/><path class="cls-9" d="M87.1,18.57h6.45v8.74H87.1V51.63H76.47V27.31h-4V18.57h4c0-6.13,2.09-14.21,12.52-14.21a26,26,0,0,1,4.56.45v8.55a13.67,13.67,0,0,0-2-.13C88.14,13.23,87.1,15.12,87.1,18.57Z"/><path class="cls-9" d="M98.83,9.31a5.55,5.55,0,0,1,11.09,0,5.55,5.55,0,1,1-11.09,0Zm.26,9.26h10.57V51.63H99.09Z"/><path class="cls-9" d="M138.54,39.11l9.13,5.48a17.47,17.47,0,0,1-15.06,7.89c-10.31,0-17.74-7.57-17.74-17.35s7.43-17.34,17.74-17.34c6.58,0,12.06,3.06,15.06,7.89l-9.13,5.48a7.1,7.1,0,0,0-13,4,6.86,6.86,0,0,0,7.05,7A7,7,0,0,0,138.54,39.11Z"/><path class="cls-9" d="M183.66,31V51.63H173V33.83c0-3.78-2.35-5.67-5.28-5.67s-5.28,2-5.28,5.67v17.8H151.9V6h10.57V21.64a11.5,11.5,0,0,1,9.06-3.85C179.81,17.79,183.66,24.31,183.66,31Z"/><path class="cls-9" d="M223,38.33H199.17c1.11,3.85,4.24,5.61,8.28,5.61a8.93,8.93,0,0,0,6.78-2.87l7.44,4.43c-2.68,4.11-7.76,7-14.22,7-11.14,0-18.58-7-18.58-17.35A17.07,17.07,0,0,1,206,17.79C215.73,17.79,224.34,24.44,223,38.33Zm-9.59-6.39c-.78-3.85-3.52-5.61-7.17-5.61a7.14,7.14,0,0,0-7.11,5.61Z"/><path class="cls-9" d="M255.05,41.39c0,7-5.15,11.09-14.8,11.09-6.65,0-13-2.15-14.41-8l9.58-3c.4,1.31,1.7,2.68,4.7,2.68,2.22,0,4-.66,4-2.35,0-2.28-3.46-2.15-7.37-3C230.4,37.42,227,35.13,227,28.68c0-6.91,5.93-10.89,14.21-10.89,5.67,0,11.28,2.8,12.72,8.41L245,28.35c-.39-1.56-1.83-2.41-3.78-2.41s-4,.59-4,2.41c0,2.15,3.58,2.28,6.19,2.81C251.73,32.92,255.05,35.33,255.05,41.39Z"/><g class="cls-1"><path class="cls-10" d="M87.1,18.57h6.45v8.74H87.1V51.63H76.47V27.31h-4V18.57h4c0-6.13,2.09-14.21,12.52-14.21a26,26,0,0,1,4.56.45v8.55a13.67,13.67,0,0,0-2-.13C88.14,13.23,87.1,15.12,87.1,18.57Z"/><path class="cls-10" d="M98.83,9.31a5.55,5.55,0,0,1,11.09,0,5.55,5.55,0,1,1-11.09,0Zm.26,9.26h10.57V51.63H99.09Z"/><path class="cls-10" d="M138.54,39.11l9.13,5.48a17.47,17.47,0,0,1-15.06,7.89c-10.31,0-17.74-7.57-17.74-17.35s7.43-17.34,17.74-17.34c6.58,0,12.06,3.06,15.06,7.89l-9.13,5.48a7.1,7.1,0,0,0-13,4,6.86,6.86,0,0,0,7.05,7A7,7,0,0,0,138.54,39.11Z"/><path class="cls-10" d="M183.66,31V51.63H173V33.83c0-3.78-2.35-5.67-5.28-5.67s-5.28,2-5.28,5.67v17.8H151.9V6h10.57V21.64a11.5,11.5,0,0,1,9.06-3.85C179.81,17.79,183.66,24.31,183.66,31Z"/><path class="cls-10" d="M223,38.33H199.17c1.11,3.85,4.24,5.61,8.28,5.61a8.93,8.93,0,0,0,6.78-2.87l7.44,4.43c-2.68,4.11-7.76,7-14.22,7-11.14,0-18.58-7-18.58-17.35A17.07,17.07,0,0,1,206,17.79C215.73,17.79,224.34,24.44,223,38.33Zm-9.59-6.39c-.78-3.85-3.52-5.61-7.17-5.61a7.14,7.14,0,0,0-7.11,5.61Z"/><path class="cls-10" d="M255.05,41.39c0,7-5.15,11.09-14.8,11.09-6.65,0-13-2.15-14.41-8l9.58-3c.4,1.31,1.7,2.68,4.7,2.68,2.22,0,4-.66,4-2.35,0-2.28-3.46-2.15-7.37-3C230.4,37.42,227,35.13,227,28.68c0-6.91,5.93-10.89,14.21-10.89,5.67,0,11.28,2.8,12.72,8.41L245,28.35c-.39-1.56-1.83-2.41-3.78-2.41s-4,.59-4,2.41c0,2.15,3.58,2.28,6.19,2.81C251.73,32.92,255.05,35.33,255.05,41.39Z"/></g></g></g></g></g></g></svg>