<svg xmlns="http://www.w3.org/2000/svg" viewBox="0 0 261.88 77.21"><defs><style>.cls-1,.cls-5,.cls-6{font-size:65.2px;font-family:MADETOMMY-Bold, MADE TOMMY;font-weight:700;}.cls-1{fill:#f23d3d;}.cls-1,.cls-6{stroke:#fff;stroke-miterlimit:10;}.cls-2{letter-spacing:-0.03em;}.cls-3{letter-spacing:-0.02em;}.cls-4{fill:#ea6a1f;}.cls-5,.cls-6{fill:#e29700;}</style></defs><g id="Calque_2" data-name="Calque 2"><g id="Calque_1-2" data-name="Calque 1"><text class="cls-1" transform="translate(5.08 60.21)"><tspan class="cls-2">A</tspan><tspan class="cls-3" x="45.38" y="0">f</tspan><tspan x="69.76" y="0">fiches</tspan></text><path class="cls-4" d="M32.37,41.11l-6-19-6,19ZM35,49.59H17.76l-2.67,8.48H3.35L19.78,12.43H33L49.38,58.07H37.71Z"/><path class="cls-4" d="M65.36,25h6.45v8.74H65.36V58.07H54.73V33.75h-4V25h4c0-6.13,2.09-14.21,12.52-14.21a26,26,0,0,1,4.56.45v8.54a15.33,15.33,0,0,0-2-.13C66.4,19.66,65.36,21.55,65.36,25Z"/><path class="cls-4" d="M89.74,25H96.2v8.74H89.74V58.07H79.12V33.75H75.07V25h4.05c0-6.13,2.08-14.21,12.51-14.21a26,26,0,0,1,4.57.45v8.54a15.51,15.51,0,0,0-2-.13C90.79,19.66,89.74,21.55,89.74,25Z"/><path class="cls-4" d="M101.74,25H112.3V58.07H101.74Zm-.26-9.26A5.54,5.54,0,1,1,107,21.36,5.6,5.6,0,0,1,101.48,15.75Z"/><path class="cls-4" d="M141.19,45.55,150.31,51a17.46,17.46,0,0,1-15.06,7.89c-10.3,0-17.73-7.56-17.73-17.34S125,24.23,135.25,24.23c6.59,0,12.06,3.06,15.06,7.89l-9.12,5.47a7.1,7.1,0,0,0-13,4,6.85,6.85,0,0,0,7,7A7,7,0,0,0,141.19,45.55Z"/><path class="cls-4" d="M186.3,37.4V58.07H175.68V40.27c0-3.79-2.35-5.68-5.29-5.68s-5.28,2-5.28,5.68v17.8H154.55V12.43h10.56V28.07a11.5,11.5,0,0,1,9.07-3.84C182.46,24.23,186.3,30.75,186.3,37.4Z"/><path class="cls-4" d="M216.1,38.38c-.78-3.85-3.52-5.61-7.17-5.61a7.12,7.12,0,0,0-7.11,5.61Zm9.58,6.39H201.82c1.11,3.84,4.24,5.6,8.28,5.6a8.93,8.93,0,0,0,6.78-2.87l7.43,4.44c-2.67,4.1-7.76,7-14.21,7-11.15,0-18.58-7-18.58-17.34A17.07,17.07,0,0,1,208.6,24.23C218.38,24.23,227,30.88,225.68,44.77Z"/><path class="cls-4" d="M257.7,47.83c0,7-5.16,11.08-14.8,11.08-6.65,0-13-2.15-14.41-7.95l9.58-3c.39,1.3,1.7,2.67,4.69,2.67,2.22,0,4-.65,4-2.34,0-2.29-3.46-2.14-7.37-3-6.33-1.41-9.78-3.72-9.78-10.18,0-6.91,5.94-10.88,14.22-10.88,5.67,0,11.28,2.8,12.71,8.41l-8.86,2.15c-.4-1.57-1.83-2.41-3.79-2.41s-4,.58-4,2.41c0,2.15,3.59,2.28,6.19,2.8C254.37,39.35,257.7,41.77,257.7,47.83Z"/><text class="cls-5" transform="translate(0.32 55.92)"><tspan class="cls-2">A</tspan><tspan class="cls-3" x="45.38" y="0">f</tspan><tspan x="69.76" y="0">fiches</tspan></text><text class="cls-6" transform="translate(0.5 55.92)"><tspan class="cls-2">A</tspan><tspan class="cls-3" x="45.38" y="0">f</tspan><tspan x="69.76" y="0">fiches</tspan></text></g></g></svg>