<svg xmlns="http://www.w3.org/2000/svg" viewBox="0 0 281.66 96.66"><defs><style>.cls-1{fill:#f23d3d;}.cls-2{fill:#ea6a1f;}.cls-3,.cls-4{fill:#e29700;}.cls-4{stroke:#fff;stroke-miterlimit:10;}</style></defs><g id="Calque_2" data-name="Calque 2"><g id="Calque_1-2" data-name="Calque 1"><path class="cls-1" d="M50,60.23V76.39H6.52V6.15H23.78V60.23Z"/><path class="cls-1" d="M93.72,51a10.89,10.89,0,1,0-21.78,0,10.89,10.89,0,0,0,21.78,0Zm16.35,0c0,15-11.34,26.69-27.29,26.69S55.49,66.05,55.49,51,66.93,24.31,82.78,24.31,110.07,35.85,110.07,51Z"/><path class="cls-1" d="M153.22,49.19c0-6.72-4.72-10.83-10.84-10.83-6.72,0-10.83,4.61-10.83,10.83S135.66,60,142.38,60C148.5,60,153.22,55.92,153.22,49.19Zm16.86-23.68V72c0,14.45-10.44,24.69-28.5,24.69-11,0-20.77-4.32-24.68-10.64L129,78.79c1.6,2.41,6,4.72,11.84,4.72,9.93,0,12.94-5.42,12.94-13.34V67.86c-2.81,3.61-7.22,6.22-14.25,6.22-15.55,0-24.48-11.54-24.48-24.89s8.83-24.88,24.48-24.88c6.93,0,11.44,2.81,14.25,6.72V25.51Z"/><path class="cls-1" d="M216.33,51a10.89,10.89,0,1,0-21.77,0,10.89,10.89,0,0,0,21.77,0Zm16.36,0c0,15-11.34,26.69-27.29,26.69S178.1,66.05,178.1,51s11.44-26.69,27.3-26.69S232.69,35.85,232.69,51Z"/><path class="cls-1" d="M281.66,60.63c0,10.74-7.93,17.06-22.78,17.06-10.24,0-20.07-3.31-22.18-12.24l14.76-4.62c.6,2,2.6,4.12,7.22,4.12,3.41,0,6.12-1,6.12-3.61,0-3.52-5.32-3.32-11.34-4.62-9.73-2.21-15.05-5.72-15.05-15.65,0-10.64,9.13-16.76,21.88-16.76,8.72,0,17.35,4.31,19.56,12.94l-13.64,3.31c-.61-2.4-2.81-3.71-5.83-3.71-3.21,0-6.22.9-6.22,3.71,0,3.32,5.52,3.52,9.54,4.32C276.54,47.59,281.66,51.3,281.66,60.63Z"/><polygon class="cls-2" points="46.96 57.41 46.96 73.56 3.51 73.56 3.51 3.32 20.77 3.32 20.77 57.41 46.96 57.41"/><path class="cls-2" d="M90.71,48.18a10.89,10.89,0,1,0-21.78,0,10.89,10.89,0,0,0,21.78,0Zm16.35,0c0,15-11.34,26.69-27.29,26.69S52.48,63.23,52.48,48.18,63.92,21.49,79.77,21.49,107.06,33,107.06,48.18Z"/><path class="cls-2" d="M150.21,46.37c0-6.72-4.72-10.84-10.84-10.84-6.72,0-10.83,4.62-10.83,10.84s4.11,10.84,10.83,10.84C145.49,57.21,150.21,53.09,150.21,46.37Zm16.86-23.68V69.15c0,14.45-10.44,24.68-28.5,24.68-11,0-20.77-4.31-24.68-10.63L126,76c1.6,2.41,6,4.72,11.84,4.72,9.93,0,12.94-5.42,12.94-13.35V65c-2.81,3.62-7.22,6.23-14.25,6.23-15.55,0-24.48-11.54-24.48-24.89s8.83-24.88,24.48-24.88c6.93,0,11.44,2.81,14.25,6.72V22.69Z"/><path class="cls-2" d="M213.32,48.18a10.89,10.89,0,1,0-21.77,0,10.89,10.89,0,0,0,21.77,0Zm16.36,0c0,15-11.34,26.69-27.29,26.69s-27.3-11.64-27.3-26.69,11.44-26.69,27.3-26.69S229.68,33,229.68,48.18Z"/><path class="cls-2" d="M278.65,57.81c0,10.74-7.93,17.06-22.78,17.06-10.24,0-20.07-3.31-22.18-12.24L248.44,58c.61,2,2.61,4.11,7.23,4.11,3.41,0,6.12-1,6.12-3.61,0-3.51-5.32-3.28-11.34-4.61-9.74-2.16-15-5.72-15-15.66,0-10.63,9.13-16.75,21.87-16.75,8.73,0,17.36,4.31,19.57,12.94l-13.65,3.31c-.6-2.41-2.8-3.71-5.82-3.71-3.21,0-6.22.9-6.22,3.71,0,3.31,5.52,3.51,9.54,4.32C273.53,44.77,278.65,48.48,278.65,57.81Z"/><path class="cls-3" d="M44,54.58V70.74H.5V.5H17.76V54.58Z"/><path class="cls-3" d="M87.7,45.35a10.89,10.89,0,1,0-21.78,0,10.89,10.89,0,0,0,21.78,0Zm16.35,0c0,15-11.34,26.69-27.29,26.69S49.47,60.4,49.47,45.35,60.91,18.66,76.76,18.66,104.05,30.2,104.05,45.35Z"/><path class="cls-3" d="M147.2,43.55c0-6.73-4.72-10.84-10.84-10.84-6.72,0-10.83,4.62-10.83,10.84s4.11,10.83,10.83,10.83C142.48,54.38,147.2,50.27,147.2,43.55Zm16.86-23.68V66.32c0,14.45-10.44,24.69-28.5,24.69-11,0-20.77-4.32-24.68-10.64L123,73.15c1.6,2.41,6,4.71,11.84,4.71,9.93,0,12.94-5.41,12.94-13.34V62.21c-2.81,3.61-7.22,6.22-14.25,6.22-15.55,0-24.48-11.54-24.48-24.88s8.83-24.89,24.48-24.89c6.93,0,11.44,2.81,14.25,6.72V19.87Z"/><path class="cls-3" d="M210.31,45.35a10.89,10.89,0,1,0-21.77,0,10.89,10.89,0,0,0,21.77,0Zm16.36,0c0,15-11.34,26.69-27.29,26.69s-27.3-11.64-27.3-26.69,11.44-26.69,27.3-26.69S226.67,30.2,226.67,45.35Z"/><path class="cls-3" d="M275.64,55c0,10.73-7.93,17.05-22.78,17.05-10.24,0-20.07-3.31-22.18-12.24l14.75-4.61c.61,2,2.61,4.11,7.23,4.11,3.41,0,6.12-1,6.12-3.61,0-3.51-5.32-3.31-11.34-4.62-9.73-2.21-15.05-5.72-15.05-15.65,0-10.64,9.13-16.76,21.87-16.76,8.73,0,17.36,4.32,19.57,13l-13.65,3.31c-.6-2.41-2.8-3.72-5.82-3.72-3.21,0-6.22.91-6.22,3.72,0,3.31,5.52,3.51,9.54,4.31C270.52,41.94,275.64,45.65,275.64,55Z"/><path class="cls-4" d="M44,54.58V70.74H.5V.5H17.76V54.58Z"/><path class="cls-4" d="M104.05,45.35c0,15-11.34,26.69-27.29,26.69S49.47,60.4,49.47,45.35,60.91,18.66,76.76,18.66,104.05,30.2,104.05,45.35Zm-16.35,0a10.89,10.89,0,1,0-21.78,0,10.89,10.89,0,0,0,21.78,0Z"/><path class="cls-4" d="M164.06,19.87V66.32c0,14.45-10.44,24.69-28.5,24.69-11,0-20.77-4.32-24.68-10.64L123,73.15c1.6,2.41,6,4.71,11.84,4.71,9.93,0,12.94-5.41,12.94-13.34V62.21c-2.81,3.61-7.22,6.22-14.25,6.22-15.55,0-24.48-11.54-24.48-24.88s8.83-24.89,24.48-24.89c6.93,0,11.44,2.81,14.25,6.72V19.87ZM147.2,43.55c0-6.73-4.72-10.84-10.84-10.84-6.72,0-10.83,4.62-10.83,10.84s4.11,10.83,10.83,10.83C142.48,54.38,147.2,50.27,147.2,43.55Z"/><path class="cls-4" d="M226.67,45.35c0,15-11.34,26.69-27.29,26.69s-27.3-11.64-27.3-26.69,11.44-26.69,27.3-26.69S226.67,30.2,226.67,45.35Zm-16.36,0a10.89,10.89,0,1,0-21.77,0,10.89,10.89,0,0,0,21.77,0Z"/><path class="cls-4" d="M275.64,55c0,10.73-7.93,17.05-22.78,17.05-10.24,0-20.07-3.31-22.18-12.24l14.75-4.61c.61,2,2.61,4.11,7.23,4.11,3.41,0,6.12-1,6.12-3.61,0-3.51-5.32-3.31-11.34-4.62-9.73-2.21-15.05-5.72-15.05-15.65,0-10.64,9.13-16.76,21.87-16.76,8.73,0,17.36,4.32,19.57,13l-13.65,3.31c-.6-2.41-2.8-3.72-5.82-3.72-3.21,0-6.22.91-6.22,3.72,0,3.31,5.52,3.51,9.54,4.31C270.52,41.94,275.64,45.65,275.64,55Z"/></g></g></svg>