<svg xmlns="http://www.w3.org/2000/svg" viewBox="0 0 405.99 78.06"><defs><style>.cls-1{fill:#ef4d29;}.cls-2{fill:#864ad1;}.cls-3{fill:#bb4c7d;}</style></defs><title>Fichier 5</title><g id="Calque_2" data-name="Calque 2"><g id="Calque_1-2" data-name="Calque 1"><path class="cls-1" d="M40.8,31.85c0-5.4-3.8-8.9-10.4-8.9h-9V40.76h9C36.6,40.76,40.8,38,40.8,31.85Zm17.4,0c0,16.51-12.6,24.21-27.8,24.21h-9v20.7H4.29v-70H30.4C47.8,6.75,58.2,16.75,58.2,31.85Z"/><path class="cls-1" d="M100.8,51.46a10.85,10.85,0,1,0-21.7,0,10.85,10.85,0,0,0,21.7,0Zm16.3,0c0,15-11.3,26.6-27.2,26.6s-27.21-11.6-27.21-26.6S74.09,24.85,89.9,24.85,117.1,36.35,117.1,51.46Z"/><path class="cls-1" d="M157.3,24.85V42.26c-14.4-2.2-16,6-16,14.5v20h-16.2V26.05h16.2v7.7A19.35,19.35,0,0,1,157.3,24.85Z"/><path class="cls-1" d="M184.8,39.46v16c0,5.3,1.89,8,6.9,8a21.62,21.62,0,0,0,3.1-.3v13.6a20.79,20.79,0,0,1-7,.9c-15.61,0-19.21-10.6-19.21-20.5V39.46h-6.3V26.05h6.3V15.45H184.8v10.6h10V39.46Z"/><path class="cls-2" d="M223.29,26.05h9.9V39.46h-9.9v37.3H207V39.46h-6.2V26.05H207c0-9.4,3.2-21.8,19.2-21.8a39,39,0,0,1,7,.7v13.1a22.33,22.33,0,0,0-3-.2C224.89,17.85,223.29,20.75,223.29,26.05Z"/><path class="cls-2" d="M275.79,51.46a10.85,10.85,0,1,0-21.7,0,10.85,10.85,0,0,0,21.7,0Zm16.31,0c0,15-11.31,26.6-27.21,26.6s-27.2-11.6-27.2-26.6,11.4-26.61,27.2-26.61S292.1,36.35,292.1,51.46Z"/><path class="cls-2" d="M316.39,6.75v70h-16.3v-70Z"/><path class="cls-2" d="M327.39,26.05h16.2V76.76h-16.2Zm-.4-14.2a8.5,8.5,0,0,1,17,0,8.5,8.5,0,1,1-17,0Z"/><path class="cls-2" d="M389.69,51.46a10.85,10.85,0,1,0-21.7,0,10.85,10.85,0,0,0,21.7,0Zm16.3,0c0,15-11.3,26.6-27.2,26.6s-27.2-11.6-27.2-26.6,11.4-26.61,27.2-26.61S406,36.35,406,51.46Z"/><path class="cls-3" d="M38.65,30.18c0-5.4-3.8-8.9-10.4-8.9h-9v17.8h9C34.45,39.08,38.65,36.28,38.65,30.18Zm17.4,0c0,16.5-12.6,24.2-27.8,24.2h-9v20.7H2.15v-70h26.1C45.65,5.08,56.05,15.08,56.05,30.18Z"/><path class="cls-3" d="M98.65,49.78a10.85,10.85,0,1,0-21.7,0,10.85,10.85,0,0,0,21.7,0Zm16.3,0c0,15-11.3,26.6-27.2,26.6s-27.2-11.6-27.2-26.6,11.4-26.6,27.2-26.6S115,34.68,115,49.78Z"/><path class="cls-3" d="M155.15,23.18v17.4c-14.4-2.2-16,6-16,14.5v20H123V24.38h16.2v7.7A19.32,19.32,0,0,1,155.15,23.18Z"/><path class="cls-3" d="M182.65,37.78v16c0,5.3,1.9,8,6.9,8a21.62,21.62,0,0,0,3.1-.3v13.6a20.79,20.79,0,0,1-7,.9c-15.6,0-19.2-10.6-19.2-20.5V37.78h-6.3V24.38h6.3V13.78h16.2v10.6h10v13.4Z"/><path class="cls-3" d="M221.15,24.38h9.9v13.4h-9.9v37.3H204.84V37.78h-6.2V24.38h6.2c0-9.4,3.2-21.8,19.21-21.8a39,39,0,0,1,7,.7v13.1a22.33,22.33,0,0,0-3-.2C222.75,16.18,221.15,19.08,221.15,24.38Z"/><path class="cls-3" d="M273.65,49.78a10.85,10.85,0,1,0-21.7,0,10.85,10.85,0,0,0,21.7,0Zm16.3,0c0,15-11.3,26.6-27.2,26.6s-27.21-11.6-27.21-26.6,11.41-26.6,27.21-26.6S290,34.68,290,49.78Z"/><rect class="cls-3" x="297.94" y="5.08" width="16.3" height="70"/><path class="cls-3" d="M325.24,24.38h16.21v50.7H325.24Zm-.4-14.2a8.51,8.51,0,0,1,17,0,8.51,8.51,0,1,1-17,0Z"/><path class="cls-3" d="M387.55,49.78a10.86,10.86,0,1,0-21.71,0,10.86,10.86,0,0,0,21.71,0Zm16.3,0c0,15-11.3,26.6-27.2,26.6s-27.21-11.6-27.21-26.6,11.4-26.6,27.21-26.6S403.85,34.68,403.85,49.78Z"/><path class="cls-2" d="M36.5,28.5c0-5.4-3.8-8.9-10.4-8.9h-9V37.4h9C32.3,37.4,36.5,34.6,36.5,28.5Zm17.4,0c0,16.5-12.6,24.2-27.8,24.2h-9V73.4H0V3.4H26.1C43.5,3.4,53.9,13.4,53.9,28.5Z"/><path class="cls-2" d="M96.5,48.1a10.85,10.85,0,1,0-21.7,0,10.85,10.85,0,0,0,21.7,0Zm16.3,0c0,15-11.3,26.6-27.2,26.6S58.4,63.1,58.4,48.1,69.8,21.5,85.6,21.5,112.8,33,112.8,48.1Z"/><path class="cls-2" d="M153,21.5V38.9c-14.4-2.2-16,6-16,14.5v20H120.8V22.7H137v7.7A19.32,19.32,0,0,1,153,21.5Z"/><path class="cls-2" d="M180.5,36.1v16c0,5.3,1.9,8,6.9,8a21.62,21.62,0,0,0,3.1-.3V73.4a20.79,20.79,0,0,1-7,.9c-15.6,0-19.2-10.6-19.2-20.5V36.1H158V22.7h6.3V12.1h16.2V22.7h10V36.1Z"/><path class="cls-1" d="M219,22.7h9.9V36.1H219V73.4H202.7V36.1h-6.2V22.7h6.2c0-9.4,3.2-21.8,19.2-21.8a39,39,0,0,1,7,.7V14.7a22.33,22.33,0,0,0-3-.2C220.6,14.5,219,17.4,219,22.7Z"/><path class="cls-1" d="M271.5,48.1a10.85,10.85,0,1,0-21.7,0,10.85,10.85,0,0,0,21.7,0Zm16.3,0c0,15-11.3,26.6-27.2,26.6s-27.2-11.6-27.2-26.6,11.4-26.6,27.2-26.6S287.8,33,287.8,48.1Z"/><path class="cls-1" d="M312.1,3.4v70H295.8V3.4Z"/><path class="cls-1" d="M323.1,22.7h16.2V73.4H323.1Zm-.4-14.2a8.5,8.5,0,0,1,17,0,8.5,8.5,0,1,1-17,0Z"/><path class="cls-1" d="M385.4,48.1a10.85,10.85,0,1,0-21.7,0,10.85,10.85,0,0,0,21.7,0Zm16.3,0c0,15-11.3,26.6-27.2,26.6s-27.2-11.6-27.2-26.6,11.4-26.6,27.2-26.6S401.7,33,401.7,48.1Z"/></g></g></svg>